<svg width="18" height="21" viewBox="0 0 18 21" fill="none" xmlns="http://www.w3.org/2000/svg">
<path fill-rule="evenodd" clip-rule="evenodd" d="M12 5C12 6.65685 10.6569 8 9.00001 8C7.34316 8 6.00001 6.65685 6.00001 5C6.00001 3.34315 7.34316 2 9.00001 2C10.6569 2 12 3.34315 12 5ZM14 5C14 7.76142 11.7614 10 9.00001 10C6.23859 10 4.00001 7.76142 4.00001 5C4.00001 2.23858 6.23859 0 9.00001 0C11.7614 0 14 2.23858 14 5ZM16.2944 16.3528C15.5053 14.7745 14.2255 13.4947 12.6472 12.7056C10.3513 11.5576 7.64877 11.5576 5.3528 12.7056C3.7745 13.4947 2.49473 14.7745 1.70558 16.3528L0.105583 19.5528C-0.141406 20.0468 0.0588185 20.6474 0.552797 20.8944C1.04678 21.1414 1.64745 20.9412 1.89444 20.4472L3.49444 17.2472C4.09006 16.056 5.05598 15.09 6.24722 14.4944C7.98014 13.628 10.0199 13.628 11.7528 14.4944C12.944 15.09 13.91 16.056 14.5056 17.2472L16.1056 20.4472C16.3526 20.9412 16.9532 21.1414 17.4472 20.8944C17.9412 20.6474 18.1414 20.0468 17.8944 19.5528L16.2944 16.3528Z" fill="#1579EF"/>
</svg>
