<svg width="21" height="23" viewBox="0 0 21 23" fill="none" xmlns="http://www.w3.org/2000/svg">
<path fill-rule="evenodd" clip-rule="evenodd" d="M8.12625 0.933693C9.64145 0.281013 11.3586 0.281013 12.8737 0.933693L13.4217 1.16975C15.0336 1.86411 16.2607 3.22947 16.7797 4.90611L17.8462 8.35191C19.6938 9.0864 21 10.8907 21 13V18C21 20.7614 18.7614 23 16 23H5C2.23859 23 0 20.7614 0 18V13C0 10.8907 1.30615 9.0864 3.15378 8.35191L4.22034 4.90611C4.73932 3.22947 5.9664 1.86411 7.57831 1.16975L8.12625 0.933693ZM14.8691 5.49747L15.6437 8.00001H5.35632L6.13092 5.49747C6.4769 4.37971 7.29495 3.46949 8.36957 3.00657L8.91751 2.77055C9.92764 2.3354 11.0724 2.3354 12.0825 2.77055L12.6304 3.00657C13.705 3.46949 14.5231 4.37971 14.8691 5.49747ZM5 10C3.34314 10 2 11.3431 2 13V18C2 19.6569 3.34314 21 5 21H16C17.6569 21 19 19.6569 19 18V13C19 11.3431 17.6569 10 16 10H5ZM10.5 18C11.3284 18 12 17.3284 12 16.5C12 15.6716 11.3284 15 10.5 15C9.67157 15 9 15.6716 9 16.5C9 17.3284 9.67157 18 10.5 18Z" fill="#1579EF"/>
</svg>
