<svg width="36" height="36" viewBox="0 0 36 36" fill="none" xmlns="http://www.w3.org/2000/svg">
<circle cx="18" cy="18" r="18" fill="#1579EF" fill-opacity="0.1"/>
<path d="M17.9062 20.7188C17.2422 20.7188 16.8516 20.2656 16.8516 19.625V19.5156C16.8516 18.5938 17.3281 17.9844 18.25 17.4453C19.2578 16.8438 19.5625 16.4531 19.5625 15.7344C19.5625 14.9688 18.9688 14.4375 18.1094 14.4375C17.3438 14.4375 16.8281 14.8125 16.5781 15.5078C16.3828 16.0078 16.0312 16.2266 15.5547 16.2266C14.9375 16.2266 14.5547 15.8438 14.5547 15.25C14.5547 14.9141 14.6328 14.6172 14.7891 14.3203C15.2891 13.2891 16.5391 12.625 18.2188 12.625C20.4375 12.625 21.9297 13.8438 21.9297 15.6641C21.9297 16.8438 21.3594 17.6484 20.2578 18.2969C19.2188 18.8984 18.9844 19.2344 18.8828 19.8906C18.7656 20.4141 18.4609 20.7188 17.9062 20.7188ZM17.9219 24.1953C17.2188 24.1953 16.6484 23.6562 16.6484 22.9688C16.6484 22.2812 17.2188 21.7422 17.9219 21.7422C18.6328 21.7422 19.2031 22.2812 19.2031 22.9688C19.2031 23.6562 18.6328 24.1953 17.9219 24.1953Z" fill="#1579EF" fill-opacity="0.5"/>
</svg>
