<svg width="36" height="36" viewBox="0 0 36 36" fill="none" xmlns="http://www.w3.org/2000/svg">
<circle cx="18" cy="18" r="18" fill="#1579EF" fill-opacity="0.1"/>
<path d="M18.1797 22.7969C17.5391 22.7969 17.1562 22.3828 17.1562 21.7109V19.4766H15.0234C14.3828 19.4766 13.9766 19.1016 13.9766 18.4766C13.9766 17.8594 14.3828 17.4844 15.0234 17.4844H17.1562V15.2344C17.1562 14.5703 17.5469 14.1484 18.1797 14.1484C18.8125 14.1484 19.1953 14.5703 19.1953 15.2344V17.4844H21.3203C21.9688 17.4844 22.375 17.8594 22.375 18.4766C22.375 19.1016 21.9609 19.4766 21.3125 19.4766H19.1953V21.7109C19.1953 22.3828 18.8125 22.7969 18.1797 22.7969Z" fill="#1579EF" fill-opacity="0.5"/>
</svg>
